<svg width="187" height="187" viewBox="0 0 187 187" fill="none" xmlns="http://www.w3.org/2000/svg">
<mask id="mask0_2680_7009" style="mask-type:luminance" maskUnits="userSpaceOnUse" x="32" y="3" width="143" height="181">
<path d="M32.321 3.53333H174.045V183.434H32.321V3.53333Z" fill="white"/>
</mask>
<g mask="url(#mask0_2680_7009)">
<path d="M46.9718 3.53333H159.455C159.932 3.53333 160.408 3.55677 160.883 3.60276C161.357 3.64966 161.829 3.72 162.297 3.81289C162.764 3.90577 163.226 4.02121 163.683 4.16009C164.139 4.29806 164.587 4.45859 165.028 4.64075C165.468 4.82382 165.899 5.02673 166.32 5.25128C166.741 5.47673 167.149 5.72112 167.545 5.98626C167.942 6.25049 168.324 6.53456 168.693 6.83667C169.062 7.13877 169.415 7.45892 169.752 7.7962C170.089 8.13257 170.409 8.48608 170.712 8.85402C171.014 9.22287 171.299 9.60523 171.564 10.0011C171.828 10.3979 172.073 10.8064 172.298 11.2267C172.523 11.6469 172.726 12.0771 172.909 12.5172C173.091 12.9582 173.252 13.4064 173.391 13.8627C173.529 14.3181 173.645 14.7798 173.738 15.2479C173.831 15.715 173.9 16.1858 173.947 16.6601C173.994 17.1345 174.017 17.6106 174.017 18.0868V168.88C174.017 169.357 173.994 169.832 173.947 170.307C173.9 170.781 173.831 171.252 173.738 171.72C173.645 172.187 173.529 172.649 173.391 173.105C173.252 173.561 173.091 174.009 172.909 174.449C172.726 174.89 172.523 175.321 172.298 175.741C172.073 176.161 171.828 176.57 171.564 176.966C171.299 177.362 171.014 177.745 170.712 178.113C170.409 178.482 170.089 178.834 169.752 179.171C169.415 179.509 169.062 179.828 168.693 180.13C168.324 180.433 167.942 180.716 167.545 180.981C167.149 181.246 166.741 181.491 166.32 181.715C165.899 181.94 165.468 182.144 165.028 182.326C164.587 182.509 164.139 182.669 163.683 182.807C163.226 182.945 162.764 183.062 162.297 183.155C161.829 183.248 161.357 183.317 160.883 183.364C160.408 183.411 159.932 183.434 159.455 183.434H46.9718C46.4948 183.434 46.0186 183.411 45.5443 183.364C45.069 183.317 44.5983 183.248 44.1302 183.155C43.6631 183.062 43.2005 182.945 42.7441 182.807C42.2878 182.669 41.8396 182.509 41.3986 182.326C40.9577 182.144 40.5275 181.94 40.1072 181.715C39.6861 181.491 39.2776 181.246 38.8808 180.981C38.4849 180.716 38.1016 180.433 37.7337 180.13C37.3648 179.828 37.0113 179.509 36.674 179.171C36.3368 178.834 36.0175 178.482 35.7145 178.113C35.4124 177.745 35.1283 177.362 34.8632 176.966C34.5981 176.57 34.3537 176.161 34.1291 175.741C33.9037 175.321 33.6999 174.89 33.5177 174.449C33.3355 174.009 33.175 173.561 33.0361 173.105C32.8981 172.649 32.7818 172.187 32.6889 171.72C32.596 171.252 32.5257 170.781 32.4797 170.307C32.4328 169.832 32.4094 169.357 32.4094 168.88V18.0868C32.4094 17.6106 32.4328 17.1345 32.4797 16.6601C32.5257 16.1858 32.596 15.715 32.6889 15.2479C32.7818 14.7798 32.8981 14.3181 33.0361 13.8627C33.175 13.4064 33.3355 12.9582 33.5177 12.5172C33.6999 12.0771 33.9037 11.6469 34.1291 11.2267C34.3537 10.8064 34.5981 10.3979 34.8632 10.0011C35.1283 9.60523 35.4124 9.22287 35.7145 8.85402C36.0175 8.48608 36.3368 8.13257 36.674 7.7962C37.0113 7.45892 37.3648 7.13877 37.7337 6.83667C38.1016 6.53456 38.4849 6.25049 38.8808 5.98626C39.2776 5.72112 39.6861 5.47673 40.1072 5.25128C40.5275 5.02673 40.9577 4.82382 41.3986 4.64075C41.8396 4.45859 42.2878 4.29806 42.7441 4.16009C43.2005 4.02121 43.6631 3.90577 44.1302 3.81289C44.5983 3.72 45.069 3.64966 45.5443 3.60276C46.0186 3.55677 46.4948 3.53333 46.9718 3.53333Z" fill="white"/>
</g>
<mask id="mask1_2680_7009" style="mask-type:luminance" maskUnits="userSpaceOnUse" x="19" y="3" width="143" height="181">
<path d="M19.6234 3.53333H161.374V183.434H19.6234V3.53333Z" fill="white"/>
</mask>
<g mask="url(#mask1_2680_7009)">
<path d="M34.2887 3.53333H146.772C147.249 3.53333 147.725 3.55677 148.199 3.60276C148.674 3.64966 149.145 3.72 149.614 3.81289C150.081 3.90577 150.543 4.02121 151 4.16009C151.456 4.29806 151.904 4.45859 152.345 4.64075C152.785 4.82382 153.216 5.02673 153.637 5.25128C154.058 5.47673 154.466 5.72112 154.863 5.98626C155.259 6.25049 155.642 6.53456 156.01 6.83667C156.379 7.13877 156.732 7.45892 157.07 7.7962C157.407 8.13257 157.726 8.48608 158.029 8.85402C158.331 9.22287 158.615 9.60523 158.881 10.0011C159.146 10.3979 159.39 10.8064 159.615 11.2267C159.84 11.6469 160.044 12.0771 160.226 12.5172C160.408 12.9582 160.569 13.4064 160.708 13.8627C160.846 14.3181 160.962 14.7798 161.055 15.2479C161.148 15.715 161.218 16.1858 161.264 16.6601C161.311 17.1345 161.334 17.6106 161.334 18.0868V168.88C161.334 169.357 161.311 169.832 161.264 170.307C161.218 170.781 161.148 171.252 161.055 171.72C160.962 172.187 160.846 172.649 160.708 173.105C160.569 173.561 160.408 174.009 160.226 174.449C160.044 174.89 159.84 175.321 159.615 175.741C159.39 176.161 159.146 176.57 158.881 176.966C158.615 177.362 158.331 177.745 158.029 178.113C157.726 178.482 157.407 178.834 157.07 179.171C156.732 179.509 156.379 179.828 156.01 180.13C155.642 180.433 155.259 180.716 154.863 180.981C154.466 181.246 154.058 181.491 153.637 181.715C153.216 181.94 152.785 182.144 152.345 182.326C151.904 182.509 151.456 182.669 151 182.807C150.543 182.945 150.081 183.062 149.614 183.155C149.145 183.248 148.674 183.317 148.199 183.364C147.725 183.411 147.249 183.434 146.772 183.434H34.2887C33.8117 183.434 33.3355 183.411 32.8612 183.364C32.3868 183.317 31.9152 183.248 31.4471 183.155C30.98 183.062 30.5174 182.945 30.061 182.807C29.6047 182.669 29.1565 182.509 28.7155 182.326C28.2754 182.144 27.8444 181.94 27.4241 181.715C27.003 181.491 26.5945 181.246 26.1977 180.981C25.8018 180.716 25.4185 180.433 25.0506 180.13C24.6817 179.828 24.3282 179.509 23.9909 179.171C23.6546 178.834 23.3344 178.482 23.0314 178.113C22.7293 177.745 22.4452 177.362 22.1801 176.966C21.915 176.57 21.6706 176.161 21.446 175.741C21.2206 175.321 21.0168 174.89 20.8346 174.449C20.6524 174.009 20.4919 173.561 20.353 173.105C20.215 172.649 20.0987 172.187 20.0058 171.72C19.9129 171.252 19.8435 170.781 19.7966 170.307C19.7497 169.832 19.7263 169.357 19.7263 168.88V18.0868C19.7263 17.6106 19.7497 17.1345 19.7966 16.6601C19.8435 16.1858 19.9129 15.715 20.0058 15.2479C20.0987 14.7798 20.215 14.3181 20.353 13.8627C20.4919 13.4064 20.6524 12.9582 20.8346 12.5172C21.0168 12.0771 21.2206 11.6469 21.446 11.2267C21.6706 10.8064 21.915 10.3979 22.1801 10.0011C22.4452 9.60523 22.7293 9.22287 23.0314 8.85402C23.3344 8.48608 23.6546 8.13257 23.9909 7.7962C24.3282 7.45892 24.6817 7.13877 25.0506 6.83667C25.4185 6.53456 25.8018 6.25049 26.1977 5.98626C26.5945 5.72112 27.003 5.47673 27.4241 5.25128C27.8444 5.02673 28.2754 4.82382 28.7155 4.64075C29.1565 4.45859 29.6047 4.29806 30.061 4.16009C30.5174 4.02121 30.98 3.90577 31.4471 3.81289C31.9152 3.72 32.3868 3.64966 32.8612 3.60276C33.3355 3.55677 33.8117 3.53333 34.2887 3.53333Z" fill="#5488D6"/>
</g>
<path d="M38.043 31.3461C38.043 31.5536 38.0331 31.7601 38.0123 31.9666C37.9925 32.1731 37.9618 32.3787 37.9212 32.5816C37.8807 32.7854 37.8302 32.9865 37.7706 33.1849C37.7102 33.3833 37.6399 33.579 37.5605 33.7702C37.4812 33.9623 37.3928 34.1499 37.2945 34.333C37.1971 34.516 37.0898 34.6937 36.9752 34.8659C36.8598 35.0382 36.7363 35.205 36.6046 35.3655C36.4729 35.5261 36.3332 35.6794 36.1862 35.8264C36.0392 35.9725 35.8859 36.1122 35.7253 36.2439C35.5648 36.3756 35.398 36.4991 35.2257 36.6136C35.0535 36.7291 34.8749 36.8355 34.6919 36.9338C34.5088 37.0312 34.3212 37.1205 34.13 37.1998C33.9379 37.2792 33.7422 37.3486 33.5438 37.409C33.3454 37.4695 33.1443 37.52 32.9405 37.5605C32.7367 37.6002 32.532 37.6309 32.3246 37.6516C32.1181 37.6715 31.9116 37.6823 31.7032 37.6823C31.4958 37.6823 31.2884 37.6715 31.0819 37.6516C30.8754 37.6309 30.6707 37.6002 30.4669 37.5605C30.263 37.52 30.0619 37.4695 29.8635 37.409C29.6642 37.3486 29.4695 37.2792 29.2774 37.1998C29.0853 37.1205 28.8986 37.0312 28.7146 36.9338C28.5316 36.8355 28.3539 36.7291 28.1817 36.6136C28.0085 36.4991 27.8426 36.3756 27.6821 36.2439C27.5215 36.1122 27.3673 35.9725 27.2203 35.8264C27.0742 35.6794 26.9345 35.5261 26.8028 35.3655C26.6711 35.205 26.5476 35.0382 26.4321 34.8659C26.3167 34.6937 26.2103 34.516 26.1129 34.333C26.0146 34.1499 25.9262 33.9623 25.8469 33.7702C25.7666 33.579 25.6972 33.3833 25.6367 33.1849C25.5763 32.9865 25.5258 32.7854 25.4852 32.5816C25.4456 32.3787 25.4149 32.1731 25.3942 31.9666C25.3743 31.7601 25.3635 31.5536 25.3635 31.3461C25.3635 31.1387 25.3743 30.9313 25.3942 30.7248C25.4149 30.5183 25.4456 30.3136 25.4852 30.1098C25.5258 29.906 25.5763 29.7048 25.6367 29.5065C25.6972 29.3081 25.7666 29.1124 25.8469 28.9212C25.9262 28.7291 26.0146 28.5424 26.1129 28.3593C26.2103 28.1763 26.3167 27.9986 26.4321 27.8255C26.5476 27.6532 26.6711 27.4864 26.8028 27.3259C26.9345 27.1662 27.0742 27.012 27.2203 26.865C27.3673 26.7189 27.5215 26.5792 27.6821 26.4475C27.8426 26.3158 28.0085 26.1932 28.1817 26.0778C28.3539 25.9623 28.5316 25.8559 28.7146 25.7576C28.8986 25.6602 29.0853 25.5718 29.2774 25.4916C29.4695 25.4122 29.6642 25.3428 29.8635 25.2824C30.0619 25.2219 30.263 25.1723 30.4669 25.1318C30.6707 25.0912 30.8754 25.0605 31.0819 25.0398C31.2884 25.0199 31.4958 25.01 31.7032 25.01C31.9116 25.01 32.1181 25.0199 32.3246 25.0398C32.532 25.0605 32.7367 25.0912 32.9405 25.1318C33.1443 25.1723 33.3454 25.2219 33.5438 25.2824C33.7422 25.3428 33.9379 25.4122 34.13 25.4916C34.3212 25.5718 34.5088 25.6602 34.6919 25.7576C34.8749 25.8559 35.0535 25.9623 35.2257 26.0778C35.398 26.1932 35.5648 26.3158 35.7253 26.4475C35.8859 26.5792 36.0392 26.7189 36.1862 26.865C36.3332 27.012 36.4729 27.1662 36.6046 27.3259C36.7363 27.4864 36.8598 27.6532 36.9752 27.8255C37.0898 27.9986 37.1971 28.1763 37.2945 28.3593C37.3928 28.5424 37.4812 28.7291 37.5605 28.9212C37.6399 29.1124 37.7102 29.3081 37.7706 29.5065C37.8302 29.7048 37.8807 29.906 37.9212 30.1098C37.9618 30.3136 37.9925 30.5183 38.0123 30.7248C38.0331 30.9313 38.043 31.1387 38.043 31.3461Z" fill="white"/>
<mask id="mask2_2680_7009" style="mask-type:luminance" maskUnits="userSpaceOnUse" x="13" y="27" width="21" height="9">
<path d="M13.0168 27.7037H33.937V35.0914H13.0168V27.7037Z" fill="white"/>
</mask>
<g mask="url(#mask2_2680_7009)">
<path d="M30.2955 34.865H16.5546C14.6103 34.865 13.0339 33.2887 13.0339 31.3461C13.0339 29.4027 14.6103 27.8273 16.5546 27.8273H30.2919C32.2362 27.8273 33.8135 29.4027 33.8135 31.3461C33.8135 33.2887 32.2362 34.865 30.2919 34.865H30.2955Z" fill="#EEBA2D"/>
</g>
<path d="M32.7205 55.3723C32.9261 55.4056 33.1281 55.448 33.3292 55.5012C33.5303 55.5544 33.7278 55.6176 33.9217 55.6906C34.1165 55.7628 34.3068 55.8448 34.4935 55.9359C34.6801 56.027 34.8614 56.1271 35.0382 56.2362C35.2149 56.3453 35.3854 56.4635 35.5504 56.5888C35.7154 56.7151 35.8741 56.8485 36.0265 56.9901C36.178 57.1317 36.3232 57.2796 36.4603 57.4356C36.5974 57.5916 36.7264 57.7531 36.8481 57.9217C36.9698 58.0903 37.0826 58.2635 37.1872 58.4429C37.2909 58.6224 37.3865 58.8073 37.4721 58.9958C37.5587 59.1842 37.6354 59.3772 37.703 59.5729C37.7697 59.7695 37.8275 59.9688 37.8753 60.1708C37.9231 60.3728 37.9609 60.5766 37.988 60.7822C38.0159 60.9879 38.0331 61.1944 38.0403 61.4018C38.0484 61.6092 38.0448 61.8166 38.0322 62.0231C38.0196 62.2306 37.9961 62.4362 37.9627 62.6418C37.9294 62.8465 37.8861 63.0494 37.8329 63.2496C37.7797 63.4498 37.7165 63.6473 37.6444 63.8421C37.5713 64.0369 37.4902 64.2272 37.3982 64.4129C37.3071 64.5996 37.207 64.7809 37.0979 64.9576C36.9888 65.1344 36.8706 65.3048 36.7453 65.4699C36.619 65.6349 36.4856 65.7927 36.344 65.9451C36.2024 66.0966 36.0536 66.2418 35.8976 66.3789C35.7425 66.516 35.5801 66.6449 35.4115 66.7667C35.2429 66.8875 35.0688 67.0002 34.8894 67.1049C34.7099 67.2095 34.5259 67.3042 34.3374 67.3907C34.1481 67.4764 33.9551 67.5531 33.7594 67.6207C33.5628 67.6874 33.3635 67.7451 33.1615 67.7929C32.9595 67.8407 32.7557 67.8786 32.5492 67.9057C32.3435 67.9336 32.137 67.9508 31.9296 67.958C31.7222 67.9661 31.5148 67.9625 31.3074 67.9499C31.0999 67.9372 30.8943 67.9138 30.6896 67.8804C30.484 67.8471 30.2811 67.8038 30.0809 67.7506C29.8798 67.6974 29.6823 67.6351 29.4875 67.5621C29.2936 67.4899 29.1024 67.4079 28.9166 67.3168C28.73 67.2248 28.5487 67.1247 28.372 67.0156C28.1952 66.9065 28.0248 66.7892 27.8588 66.663C27.6938 66.5376 27.536 66.4042 27.3836 66.2626C27.2321 66.121 27.0869 65.9722 26.9498 65.8171C26.8127 65.6611 26.6829 65.4987 26.562 65.331C26.4403 65.1624 26.3275 64.9883 26.2229 64.8088C26.1192 64.6294 26.0236 64.4454 25.9371 64.2569C25.8514 64.0676 25.7747 63.8755 25.7071 63.6789C25.6404 63.4832 25.5826 63.2839 25.5348 63.0819C25.4871 62.8799 25.4492 62.6761 25.4221 62.4704C25.3942 62.2648 25.377 62.0583 25.3689 61.8509C25.3617 61.6435 25.3644 61.4361 25.3779 61.2286C25.3906 61.0221 25.414 60.8156 25.4474 60.6109C25.4807 60.4062 25.524 60.2033 25.5772 60.0031C25.6304 59.802 25.6927 59.6045 25.7657 59.4106C25.8379 59.2158 25.9199 59.0255 26.0119 58.8388C26.103 58.6531 26.2031 58.4718 26.3122 58.295C26.4213 58.1183 26.5386 57.9478 26.6648 57.7828C26.7911 57.6178 26.9245 57.4591 27.0661 57.3076C27.2077 57.1552 27.3565 57.0109 27.5116 56.8738C27.6676 56.7367 27.83 56.6069 27.9986 56.486C28.1663 56.3643 28.3404 56.2515 28.5208 56.1478C28.7002 56.0432 28.8842 55.9485 29.0727 55.862C29.262 55.7754 29.4541 55.6987 29.6507 55.632C29.8473 55.5644 30.0466 55.5075 30.2486 55.4597C30.4506 55.4119 30.6544 55.3741 30.8601 55.347C31.0666 55.3191 31.2731 55.301 31.4805 55.2938C31.6879 55.2866 31.8953 55.2893 32.1028 55.3028C32.3102 55.3155 32.5158 55.3389 32.7205 55.3723Z" fill="white"/>
<mask id="mask3_2680_7009" style="mask-type:luminance" maskUnits="userSpaceOnUse" x="13" y="57" width="21" height="9">
<path d="M13.0168 57.9469H33.937V65.3346H13.0168V57.9469Z" fill="white"/>
</mask>
<g mask="url(#mask3_2680_7009)">
<path d="M16.5546 58.1002H30.2955C30.5273 58.1002 30.7563 58.1228 30.9827 58.1679C31.2099 58.2129 31.43 58.2797 31.6437 58.3681C31.8566 58.4573 32.0595 58.5656 32.2524 58.6936C32.4445 58.8217 32.6222 58.9678 32.7854 59.131C32.9486 59.2942 33.0947 59.4728 33.2237 59.6649C33.3518 59.857 33.46 60.0599 33.5484 60.2727C33.6376 60.4864 33.7044 60.7065 33.7495 60.9328C33.7945 61.1592 33.8171 61.3882 33.8171 61.6191V61.6227C33.8171 61.8545 33.7945 62.0826 33.7495 62.3099C33.7044 62.5362 33.6376 62.7563 33.5484 62.97C33.46 63.1828 33.3518 63.3857 33.2237 63.5778C33.0947 63.7699 32.9486 63.9476 32.7854 64.1117C32.6222 64.2749 32.4445 64.4201 32.2524 64.5491C32.0595 64.6771 31.8566 64.7854 31.6437 64.8737C31.43 64.9621 31.2099 65.0289 30.9827 65.0739C30.7563 65.119 30.5273 65.1416 30.2955 65.1416H16.5546C16.3237 65.1416 16.0947 65.119 15.8674 65.0739C15.641 65.0289 15.421 64.9621 15.2073 64.8737C14.9935 64.7854 14.7906 64.6771 14.5986 64.5491C14.4065 64.4201 14.2288 64.2749 14.0647 64.1117C13.9014 63.9476 13.7554 63.7699 13.6273 63.5778C13.4983 63.3857 13.3901 63.1828 13.3017 62.97C13.2134 62.7563 13.1466 62.5362 13.1015 62.3099C13.0565 62.0826 13.0339 61.8545 13.0339 61.6227V61.6191C13.0339 61.3882 13.0565 61.1592 13.1015 60.9328C13.1466 60.7065 13.2134 60.4864 13.3017 60.2727C13.3901 60.0599 13.4983 59.857 13.6273 59.6649C13.7554 59.4728 13.9014 59.2942 14.0647 59.131C14.2288 58.9678 14.4065 58.8217 14.5986 58.6936C14.7906 58.5656 14.9935 58.4573 15.2073 58.3681C15.421 58.2797 15.641 58.2129 15.8674 58.1679C16.0947 58.1228 16.3237 58.1002 16.5546 58.1002Z" fill="#EEBA2D"/>
</g>
<path d="M38.043 90.4897C38.043 90.6971 38.0331 90.9045 38.0123 91.1111C37.9925 91.3176 37.9618 91.5223 37.9212 91.7261C37.8807 91.9299 37.8302 92.131 37.7706 92.3294C37.7102 92.5278 37.6399 92.7226 37.5605 92.9147C37.4812 93.1068 37.3928 93.2934 37.2945 93.4765C37.1971 93.6596 37.0898 93.8372 36.9752 94.0104C36.8598 94.1826 36.7363 94.3495 36.6046 94.5091C36.4729 94.6696 36.3332 94.8238 36.1862 94.9699C36.0392 95.1169 35.8859 95.2558 35.7253 95.3875C35.5648 95.5191 35.398 95.6427 35.2257 95.7581C35.0535 95.8735 34.8749 95.9799 34.6919 96.0782C34.5088 96.1756 34.3212 96.264 34.13 96.3434C33.9379 96.4227 33.7422 96.4931 33.5438 96.5535C33.3454 96.613 33.1443 96.6635 32.9405 96.7041C32.7367 96.7447 32.532 96.7753 32.3246 96.7952C32.1181 96.8159 31.9116 96.8258 31.7032 96.8258C31.4958 96.8258 31.2884 96.8159 31.0819 96.7952C30.8754 96.7753 30.6707 96.7447 30.4669 96.7041C30.263 96.6635 30.0619 96.613 29.8635 96.5535C29.6642 96.4931 29.4695 96.4227 29.2774 96.3434C29.0853 96.264 28.8986 96.1756 28.7146 96.0782C28.5316 95.9799 28.3539 95.8735 28.1817 95.7581C28.0085 95.6427 27.8426 95.5191 27.6821 95.3875C27.5215 95.2558 27.3673 95.1169 27.2203 94.9699C27.0742 94.8238 26.9345 94.6696 26.8028 94.5091C26.6711 94.3495 26.5476 94.1826 26.4321 94.0104C26.3167 93.8372 26.2103 93.6596 26.1129 93.4765C26.0146 93.2934 25.9262 93.1068 25.8469 92.9147C25.7666 92.7226 25.6972 92.5278 25.6367 92.3294C25.5763 92.131 25.5258 91.9299 25.4852 91.7261C25.4456 91.5223 25.4149 91.3176 25.3942 91.1111C25.3743 90.9045 25.3635 90.6971 25.3635 90.4897C25.3635 90.2823 25.3743 90.0758 25.3942 89.8693C25.4149 89.6627 25.4456 89.4571 25.4852 89.2542C25.5258 89.0504 25.5763 88.8493 25.6367 88.6509C25.6972 88.4525 25.7666 88.2568 25.8469 88.0656C25.9262 87.8735 26.0146 87.686 26.1129 87.5029C26.2103 87.3198 26.3167 87.1422 26.4321 86.9699C26.5476 86.7977 26.6711 86.6308 26.8028 86.4703C26.9345 86.3098 27.0742 86.1565 27.2203 86.0095C27.3673 85.8625 27.5215 85.7236 27.6821 85.592C27.8426 85.4603 28.0085 85.3367 28.1817 85.2213C28.3539 85.1068 28.5316 84.9995 28.7146 84.9021C28.8986 84.8038 29.0853 84.7154 29.2774 84.636C29.4695 84.5567 29.6642 84.4872 29.8635 84.4268C30.0619 84.3664 30.263 84.3159 30.4669 84.2753C30.6707 84.2347 30.8754 84.205 31.0819 84.1842C31.2884 84.1644 31.4958 84.1536 31.7032 84.1536C31.9116 84.1536 32.1181 84.1644 32.3246 84.1842C32.532 84.205 32.7367 84.2347 32.9405 84.2753C33.1443 84.3159 33.3454 84.3664 33.5438 84.4268C33.7422 84.4872 33.9379 84.5567 34.13 84.636C34.3212 84.7154 34.5088 84.8038 34.6919 84.9021C34.8749 84.9995 35.0535 85.1068 35.2257 85.2213C35.398 85.3367 35.5648 85.4603 35.7253 85.592C35.8859 85.7236 36.0392 85.8625 36.1862 86.0095C36.3332 86.1565 36.4729 86.3098 36.6046 86.4703C36.7363 86.6308 36.8598 86.7977 36.9752 86.9699C37.0898 87.1422 37.1971 87.3198 37.2945 87.5029C37.3928 87.686 37.4812 87.8735 37.5605 88.0656C37.6399 88.2568 37.7102 88.4525 37.7706 88.6509C37.8302 88.8493 37.8807 89.0504 37.9212 89.2542C37.9618 89.4571 37.9925 89.6627 38.0123 89.8693C38.0331 90.0758 38.043 90.2823 38.043 90.4897Z" fill="white"/>
<mask id="mask4_2680_7009" style="mask-type:luminance" maskUnits="userSpaceOnUse" x="13" y="86" width="21" height="9">
<path d="M13.0168 86.8049H33.937V94.1926H13.0168V86.8049Z" fill="white"/>
</mask>
<g mask="url(#mask4_2680_7009)">
<path d="M30.2955 94.0122H16.5546C14.6103 94.0122 13.0339 92.4368 13.0339 90.4934C13.0339 88.5509 14.6103 86.9745 16.5546 86.9745H30.2919C32.2362 86.9745 33.8135 88.5509 33.8135 90.4934C33.8135 92.4368 32.2362 94.0122 30.2919 94.0122H30.2955Z" fill="#EEBA2D"/>
</g>
<path d="M32.7205 118.041C32.9252 118.074 33.1281 118.118 33.3283 118.171C33.5294 118.224 33.7269 118.286 33.9217 118.359C34.1165 118.432 34.3068 118.514 34.4934 118.605C34.6792 118.696 34.8614 118.797 35.0372 118.906C35.214 119.015 35.3853 119.132 35.5504 119.258C35.7154 119.384 35.8741 119.517 36.0256 119.659C36.178 119.801 36.3223 119.949 36.4594 120.104C36.5965 120.26 36.7263 120.422 36.8481 120.591C36.9689 120.759 37.0816 120.933 37.1863 121.113C37.2909 121.292 37.3856 121.476 37.4721 121.665C37.5578 121.853 37.6345 122.046 37.7021 122.243C37.7697 122.438 37.8265 122.638 37.8743 122.84C37.9221 123.042 37.96 123.245 37.988 123.451C38.015 123.657 38.0331 123.863 38.0403 124.071C38.0475 124.278 38.0448 124.485 38.0313 124.693C38.0186 124.899 37.9952 125.106 37.9618 125.311C37.9293 125.515 37.8861 125.718 37.8329 125.918C37.7796 126.12 37.7165 126.317 37.6435 126.511C37.5713 126.706 37.4893 126.896 37.3982 127.082C37.3062 127.268 37.2061 127.45 37.097 127.626C36.9879 127.803 36.8706 127.974 36.7444 128.139C36.6181 128.304 36.4846 128.462 36.3431 128.614C36.2015 128.765 36.0536 128.911 35.8976 129.048C35.7416 129.185 35.5792 129.314 35.4115 129.436C35.2428 129.557 35.0688 129.67 34.8893 129.774C34.7099 129.878 34.525 129.973 34.3365 130.06C34.148 130.145 33.9551 130.222 33.7585 130.29C33.5619 130.357 33.3626 130.414 33.1606 130.462C32.9586 130.51 32.7547 130.547 32.5491 130.574C32.3435 130.602 32.1361 130.62 31.9287 130.628C31.7213 130.635 31.5139 130.632 31.3073 130.619C31.0999 130.606 30.8934 130.583 30.6887 130.549C30.484 130.516 30.2811 130.473 30.08 130.419C29.8798 130.367 29.6823 130.304 29.4875 130.231C29.2927 130.159 29.1024 130.077 28.9157 129.986C28.7291 129.895 28.5478 129.794 28.371 129.685C28.1943 129.576 28.0238 129.458 27.8588 129.333C27.6938 129.206 27.5351 129.073 27.3835 128.931C27.2311 128.79 27.0868 128.641 26.9498 128.486C26.8118 128.33 26.6828 128.168 26.5611 128C26.4402 127.831 26.3266 127.657 26.2229 127.478C26.1183 127.298 26.0227 127.114 25.937 126.926C25.8505 126.737 25.7738 126.544 25.7071 126.348C25.6394 126.152 25.5817 125.953 25.5339 125.751C25.487 125.549 25.4492 125.345 25.4212 125.139C25.3932 124.934 25.3761 124.727 25.3689 124.52C25.3617 124.312 25.3644 124.105 25.377 123.897C25.3905 123.691 25.4131 123.484 25.4465 123.28C25.4798 123.075 25.5231 122.872 25.5763 122.672C25.6295 122.472 25.6926 122.274 25.7648 122.079C25.8378 121.885 25.9199 121.694 26.011 121.509C26.1021 121.322 26.2022 121.141 26.3113 120.964C26.4213 120.787 26.5385 120.617 26.6648 120.452C26.7902 120.287 26.9245 120.128 27.0652 119.976C27.2068 119.825 27.3556 119.68 27.5116 119.543C27.6676 119.406 27.829 119.277 27.9977 119.155C28.1663 119.034 28.3404 118.92 28.5198 118.817C28.6993 118.712 28.8833 118.617 29.0726 118.531C29.2611 118.445 29.4541 118.368 29.6507 118.301C29.8464 118.234 30.0457 118.176 30.2477 118.129C30.4506 118.081 30.6544 118.043 30.86 118.016C31.0656 117.988 31.2722 117.971 31.4796 117.963C31.687 117.955 31.8944 117.958 32.1018 117.972C32.3092 117.984 32.5149 118.008 32.7205 118.041Z" fill="white"/>
<mask id="mask5_2680_7009" style="mask-type:luminance" maskUnits="userSpaceOnUse" x="13" y="120" width="21" height="8">
<path d="M13.0168 120.742H33.937V127.899H13.0168V120.742Z" fill="white"/>
</mask>
<g mask="url(#mask5_2680_7009)">
<path d="M30.2955 127.809H16.5546C14.6103 127.809 13.0339 126.233 13.0339 124.29C13.0339 122.347 14.6103 120.771 16.5546 120.771H30.2919C32.2362 120.771 33.8135 122.347 33.8135 124.29C33.8135 126.233 32.2362 127.809 30.2919 127.809H30.2955Z" fill="#EEBA2D"/>
</g>
<path d="M32.7205 150.076C32.9252 150.109 33.1281 150.153 33.3292 150.206C33.5294 150.259 33.7269 150.322 33.9217 150.394C34.1165 150.468 34.3068 150.549 34.4934 150.641C34.6792 150.732 34.8614 150.832 35.0381 150.941C35.214 151.05 35.3853 151.167 35.5504 151.294C35.7154 151.419 35.8741 151.553 36.0256 151.694C36.178 151.836 36.3223 151.984 36.4594 152.14C36.5974 152.295 36.7263 152.458 36.8481 152.626C36.9689 152.794 37.0816 152.968 37.1863 153.148C37.2909 153.327 37.3856 153.511 37.4721 153.7C37.5587 153.889 37.6354 154.081 37.7021 154.278C37.7697 154.474 37.8274 154.673 37.8743 154.875C37.9221 155.077 37.96 155.28 37.988 155.486C38.015 155.693 38.0331 155.899 38.0403 156.107C38.0475 156.313 38.0448 156.52 38.0322 156.728C38.0186 156.935 37.9952 157.141 37.9627 157.346C37.9293 157.55 37.8861 157.753 37.8329 157.953C37.7796 158.155 37.7165 158.352 37.6444 158.546C37.5713 158.741 37.4893 158.931 37.3982 159.118C37.3071 159.303 37.2061 159.486 37.097 159.661C36.9879 159.838 36.8706 160.009 36.7444 160.174C36.619 160.339 36.4846 160.497 36.3431 160.649C36.2015 160.801 36.0536 160.946 35.8976 161.083C35.7416 161.22 35.5792 161.35 35.4115 161.471C35.2428 161.592 35.0688 161.705 34.8893 161.81C34.7099 161.913 34.5259 162.009 34.3365 162.095C34.148 162.181 33.9551 162.258 33.7585 162.325C33.5619 162.392 33.3626 162.45 33.1606 162.497C32.9586 162.545 32.7547 162.582 32.5491 162.61C32.3435 162.637 32.137 162.656 31.9287 162.663C31.7213 162.67 31.5139 162.667 31.3073 162.655C31.0999 162.641 30.8934 162.618 30.6887 162.585C30.484 162.552 30.2811 162.509 30.08 162.455C29.8798 162.402 29.6823 162.339 29.4875 162.267C29.2927 162.194 29.1024 162.112 28.9157 162.021C28.73 161.93 28.5478 161.829 28.371 161.72C28.1943 161.611 28.0238 161.494 27.8588 161.368C27.6938 161.241 27.5351 161.108 27.3835 160.966C27.2311 160.826 27.0868 160.677 26.9498 160.521C26.8118 160.366 26.6828 160.203 26.5611 160.035C26.4402 159.867 26.3275 159.693 26.2229 159.514C26.1183 159.334 26.0236 159.15 25.937 158.961C25.8505 158.772 25.7738 158.579 25.7071 158.384C25.6394 158.187 25.5817 157.988 25.5339 157.786C25.487 157.584 25.4492 157.38 25.4212 157.174C25.3941 156.969 25.3761 156.762 25.3689 156.555C25.3617 156.347 25.3644 156.14 25.377 155.933C25.3905 155.726 25.4131 155.52 25.4465 155.316C25.4798 155.111 25.5231 154.908 25.5763 154.707C25.6295 154.507 25.6926 154.309 25.7648 154.114C25.8378 153.921 25.9199 153.73 26.011 153.544C26.1021 153.357 26.2031 153.176 26.3122 152.999C26.4213 152.823 26.5385 152.652 26.6648 152.487C26.7902 152.322 26.9245 152.164 27.0661 152.011C27.2068 151.86 27.3556 151.716 27.5116 151.579C27.6676 151.441 27.829 151.312 27.9977 151.19C28.1663 151.069 28.3404 150.956 28.5198 150.852C28.6993 150.748 28.8833 150.652 29.0726 150.567C29.2611 150.48 29.4541 150.403 29.6507 150.336C29.8473 150.269 30.0466 150.211 30.2486 150.164C30.4506 150.116 30.6544 150.079 30.86 150.051C31.0656 150.023 31.2722 150.006 31.4796 149.999C31.6879 149.991 31.8944 149.994 32.1018 150.007C32.3092 150.02 32.5158 150.043 32.7205 150.076Z" fill="white"/>
<mask id="mask6_2680_7009" style="mask-type:luminance" maskUnits="userSpaceOnUse" x="13" y="152" width="21" height="8">
<path d="M13.0168 152.601H33.937V159.989H13.0168V152.601Z" fill="white"/>
</mask>
<g mask="url(#mask6_2680_7009)">
<path d="M30.2955 159.846H16.5546C14.6103 159.846 13.0339 158.269 13.0339 156.327C13.0339 154.383 14.6103 152.808 16.5546 152.808H30.2919C32.2362 152.808 33.8135 154.383 33.8135 156.327C33.8135 158.269 32.2362 159.846 30.2919 159.846H30.2955Z" fill="#EEBA2D"/>
</g>
</svg>
