<svg width="187" height="187" viewBox="0 0 187 187" fill="none" xmlns="http://www.w3.org/2000/svg">
<g clip-path="url(#clip0_2680_7005)">
<mask id="mask0_2680_7005" style="mask-type:luminance" maskUnits="userSpaceOnUse" x="29" y="0" width="129" height="151">
<path d="M29.1015 0H157.911V150.293H29.1015V0Z" fill="white"/>
</mask>
<g mask="url(#mask0_2680_7005)">
<path d="M157.896 64.3769C157.896 28.8238 129.07 0 93.5057 0C57.9418 0 29.1153 28.8238 29.1153 64.3769C29.1153 85.4405 39.2345 107.368 54.8783 121.741C62.8575 129.071 67.4433 139.379 67.4433 150.21H119.568C119.568 139.375 124.154 129.071 132.133 121.741C147.777 107.364 157.896 85.4405 157.896 64.3769Z" fill="#EEBA2D"/>
</g>
<path d="M68.977 144.083H118.037C118.339 144.083 118.639 144.098 118.939 144.128C119.239 144.157 119.536 144.202 119.832 144.26C120.128 144.319 120.419 144.392 120.708 144.479C120.996 144.567 121.279 144.668 121.558 144.783C121.836 144.899 122.108 145.028 122.373 145.169C122.639 145.311 122.897 145.466 123.148 145.634C123.399 145.801 123.64 145.98 123.873 146.171C124.106 146.362 124.328 146.564 124.542 146.777C124.755 146.99 124.957 147.213 125.148 147.445C125.339 147.678 125.519 147.92 125.686 148.171C125.853 148.421 126.008 148.679 126.15 148.945C126.292 149.21 126.421 149.483 126.536 149.76C126.652 150.039 126.753 150.322 126.84 150.611C126.928 150.898 127.001 151.191 127.059 151.486C127.118 151.781 127.162 152.079 127.192 152.378C127.222 152.679 127.236 152.979 127.236 153.28V177.803C127.236 178.104 127.222 178.405 127.192 178.705C127.162 179.004 127.118 179.302 127.059 179.598C127.001 179.893 126.928 180.185 126.84 180.473C126.753 180.761 126.652 181.044 126.536 181.323C126.421 181.601 126.292 181.873 126.15 182.138C126.008 182.404 125.853 182.662 125.686 182.913C125.519 183.163 125.339 183.404 125.148 183.638C124.957 183.871 124.755 184.093 124.542 184.306C124.328 184.519 124.106 184.721 123.873 184.912C123.64 185.103 123.399 185.283 123.148 185.45C122.897 185.617 122.639 185.772 122.373 185.914C122.108 186.056 121.836 186.185 121.558 186.3C121.279 186.416 120.996 186.517 120.708 186.604C120.419 186.691 120.128 186.765 119.832 186.823C119.536 186.882 119.239 186.926 118.939 186.956C118.639 186.985 118.339 187 118.037 187H68.977C68.6758 187 68.3755 186.985 68.0752 186.956C67.7758 186.926 67.4782 186.882 67.1824 186.823C66.8875 186.765 66.5953 186.691 66.3067 186.604C66.0191 186.517 65.735 186.416 65.4572 186.3C65.1786 186.185 64.9071 186.056 64.6411 185.914C64.375 185.772 64.1171 185.617 63.8664 185.45C63.6166 185.283 63.3749 185.103 63.1414 184.912C62.9087 184.721 62.6859 184.519 62.4731 184.306C62.2594 184.093 62.0574 183.871 61.8662 183.638C61.675 183.404 61.4965 183.163 61.3287 182.913C61.1619 182.662 61.0068 182.404 60.8652 182.138C60.7227 181.873 60.5937 181.601 60.4792 181.323C60.3638 181.044 60.2619 180.761 60.1744 180.473C60.0869 180.185 60.0139 179.893 59.9553 179.598C59.8966 179.302 59.8525 179.004 59.8227 178.705C59.7929 178.405 59.7785 178.104 59.7785 177.803V153.28C59.7785 152.979 59.7929 152.679 59.8227 152.378C59.8525 152.079 59.8966 151.781 59.9553 151.486C60.0139 151.191 60.0869 150.898 60.1744 150.611C60.2619 150.322 60.3638 150.039 60.4792 149.76C60.5937 149.483 60.7227 149.21 60.8652 148.945C61.0068 148.679 61.1619 148.421 61.3287 148.171C61.4965 147.92 61.675 147.678 61.8662 147.445C62.0574 147.213 62.2594 146.99 62.4731 146.777C62.6859 146.564 62.9087 146.362 63.1414 146.171C63.3749 145.98 63.6166 145.801 63.8664 145.634C64.1171 145.466 64.375 145.311 64.6411 145.169C64.9071 145.028 65.1786 144.899 65.4572 144.783C65.735 144.668 66.0191 144.567 66.3067 144.479C66.5953 144.392 66.8875 144.319 67.1824 144.26C67.4782 144.202 67.7758 144.157 68.0752 144.128C68.3755 144.098 68.6758 144.083 68.977 144.083Z" fill="#1E1C1C"/>
<path d="M98.9785 168.652C98.9704 168.506 98.2156 153.867 98.5925 137.55C98.8135 128.117 99.3483 120.073 100.194 113.449C95.9935 114.268 91.5602 114.706 87.1422 114.706C87.0674 114.706 86.9925 114.706 86.9141 114.706C88.8448 127.53 89.3986 144.824 88.4102 165.585L86.7084 165.503C87.6851 145.026 87.1503 127.552 85.1672 114.675C75.1941 114.381 67.2942 111.834 63.8637 107.776C61.7048 105.221 60.2276 100.845 65.4383 94.4947C69.8409 89.128 73.5077 89.0531 75.8082 89.9396C80.8052 91.8623 84.4828 99.9326 86.6453 113.001C91.3095 113.034 96.0197 112.566 100.43 111.665C101.552 103.759 103.153 98.0478 105.225 94.5957C107.59 90.6574 112.183 86.8392 117.985 87.9349C121.764 88.6491 124.569 91.2896 125.134 94.6597C125.905 99.2481 122.422 104.125 115.58 108.034C111.768 110.211 107.073 111.927 101.971 113.071C99.0083 135.594 100.654 168.124 100.677 168.562L98.9749 168.652H98.9785ZM73.5672 91.222C70.9411 91.222 68.4801 93.4774 66.7585 95.5759C63.1711 99.9479 62.6363 103.684 65.1686 106.68C68.2105 110.277 75.6766 112.634 84.894 112.963C84.8192 112.522 84.7407 112.084 84.6622 111.654C82.5709 100.221 79.2117 93.0734 75.1977 91.5286C74.6521 91.3194 74.102 91.222 73.5636 91.222H73.5672ZM116.078 89.468C113.717 89.468 109.767 90.3508 106.692 95.4749C104.638 98.9009 103.205 104.567 102.221 111.277C106.916 110.173 111.218 108.568 114.734 106.56C120.921 103.026 124.098 98.7918 123.455 94.9474C123.009 92.2879 120.738 90.1939 117.671 89.6141C117.316 89.5464 116.762 89.4716 116.073 89.4716L116.078 89.468Z" fill="#1E1C1C"/>
<path d="M127.236 162.477H59.7785C58.084 162.477 56.7114 161.104 56.7114 159.41C56.7114 157.715 58.084 156.343 59.7785 156.343H127.236C128.93 156.343 130.304 157.715 130.304 159.41C130.304 161.104 128.93 162.477 127.236 162.477Z" fill="#D27A88"/>
<path d="M127.236 177.803H59.7785C58.084 177.803 56.7114 176.431 56.7114 174.736C56.7114 173.043 58.084 171.67 59.7785 171.67H127.236C128.93 171.67 130.304 173.043 130.304 174.736C130.304 176.431 128.93 177.803 127.236 177.803Z" fill="#D27A88"/>
</g>
<defs>
<clipPath id="clip0_2680_7005">
<rect width="187" height="187" fill="white"/>
</clipPath>
</defs>
</svg>
