<svg width="150" height="41" viewBox="0 0 150 41" fill="none" xmlns="http://www.w3.org/2000/svg">
<path d="M1.78468 0.728195C1.07184 0.525665 3.63374 2.65092 3.21854 4.22692C3.12992 4.56575 1.62536 6.09656 1.67454 6.18909C2.10792 7.01571 3.53795 6.85455 3.86273 7.78399C4.11067 8.49129 2.45166 9.98647 2.06028 10.3593C1.84 10.5685 3.09022 11.9381 2.96189 12.4448C2.64505 13.6519 1.4353 14.1258 0.902276 15.1435C0.833119 15.2757 2.5659 16.6559 2.31873 17.5965C2.14122 18.2708 1.20964 18.6015 0.902276 19.191C0.61079 19.7471 1.7816 20.8231 1.93196 21.3985C2.2949 22.7815 1.18403 23.3154 0.644856 24.3427C0.477598 24.6621 1.81541 25.4919 1.93196 25.9371C2.24419 27.1262 1.45682 27.916 0.516531 28.5128C0.350809 28.6051 0.178683 28.6869 0.00169094 28.7577C0.00169094 28.7577 1.46066 29.2488 1.6753 29.8619C1.99701 30.7832 1.19299 31.7846 0.645625 32.4377C0.574162 32.5228 -0.0413405 33.0094 0.00220318 33.0508C0.378728 33.4094 1.37588 33.215 1.67607 33.7903C1.92709 34.2702 0.403829 35.9438 0.517299 35.9978C1.34668 36.3929 2.09614 36.8484 1.8044 37.9607C1.64226 38.5796 0.0426732 38.9806 0.517299 39.4322C0.560074 39.4729 7.08599 39.5757 7.72634 39.6778C11.3315 40.2503 15.1833 39.8997 18.7979 39.5544C24.2942 39.0308 29.9213 39.9241 35.4058 39.9241C39.4973 39.9241 43.5566 40.4662 47.6356 40.6599C60.3007 41.2634 73.5905 40.9898 86.2571 40.4152C91.1378 40.1933 96.062 40.3782 100.933 40.0453C106.716 39.652 112.615 38.3859 118.441 38.9413C123.821 39.4538 129.92 39.8241 135.177 40.6584C136.168 40.816 139.183 41.2648 140.198 40.7813C141.292 40.2636 143.48 39.6654 144.704 39.4322C145.634 39.2548 149.365 39.1616 149.982 38.5736C150.267 38.3015 146.993 36.5975 146.764 36.4883C146.193 36.2169 147.408 34.7709 147.408 34.7709C147.408 34.7709 146.457 34.4307 146.249 34.0314C145.987 33.5345 147.176 32.8303 146.764 32.4369C145.288 31.0319 145.71 30.497 146.893 29.3708C146.942 29.3234 146.218 28.9425 146.12 28.757C145.691 27.9435 146.723 27.4481 147.15 27.0396C147.324 26.8735 145.658 25.7826 145.862 25.2004C146.258 24.0608 147.877 24.1392 148.565 23.4833C148.652 23.4013 146.374 22.4931 146.248 22.1335C145.935 21.238 147.054 20.8423 147.407 20.1716C147.882 19.2715 146.311 18.6977 145.99 18.086C145.587 17.3177 146.771 17.0884 147.02 16.6145C147.02 16.6145 146.21 15.6834 146.119 15.5103C145.699 14.7099 147.533 14.0311 147.407 13.7929C147.138 13.2819 145.717 13.165 145.218 12.6897C143.951 11.485 146.169 10.3349 145.862 9.74545C145.617 9.28037 144.984 9.09984 144.832 8.51927C144.53 7.36554 146.192 6.54179 146.634 5.69795C146.896 5.20036 145.197 3.9187 144.961 3.24488C144.528 2.00531 147.602 1.54836 145.606 0.914465C140.542 -0.694059 133.198 0.216251 127.968 0.669134C119.237 1.42474 110.223 1.65046 101.447 1.65046C86.932 1.65046 72.0393 2.14519 57.5477 1.28055C48.9832 0.773387 1.95347 0.728195 1.78468 0.728195Z" fill="#E36527"/>
</svg>
