<svg width="926" height="252" viewBox="0 0 926 252" fill="none" xmlns="http://www.w3.org/2000/svg">
<path d="M925 140.717C922.544 141.778 920.085 142.689 917.817 143.598C890.595 153.91 861.481 161.039 831.8 165.74C824.805 166.954 817.811 167.863 810.628 168.772C804.768 169.533 798.718 170.137 792.859 170.744C784.54 171.655 776.222 172.262 768.092 172.869C765.257 173.02 762.61 173.323 759.774 173.474C759.018 173.474 758.262 173.627 757.506 173.627C742.95 174.536 728.204 175.143 713.459 175.599C706.841 175.75 700.035 176.052 693.42 176.206C691.34 176.206 689.072 176.357 686.802 176.357C669.6 176.659 652.585 176.964 635.383 177.417C632.357 177.417 629.145 177.57 626.118 177.722C608.161 178.175 590.201 178.935 572.241 180.147C554.281 181.361 536.324 183.637 518.552 185.455C503.051 186.973 487.738 188.034 472.426 187.731C463.728 187.427 455.033 186.82 446.336 185.304C441.988 184.546 437.641 184.395 433.293 184.395C429.323 184.395 425.352 184.697 421.384 185.153C411.174 186.213 400.965 188.338 390.758 189.703C350.491 195.162 309.847 189.854 269.2 184.546C257.291 183.03 245.381 181.512 233.471 180.3C213.244 178.175 192.637 176.964 172.409 175.143C154.072 173.627 135.735 171.655 117.587 168.47C98.492 165.134 79.3994 159.977 62.0071 152.85C59.5483 151.787 57.092 150.727 54.6332 149.665C40.2673 142.991 27.4108 134.802 16.8247 124.488C11.1537 119.029 6.23863 113.116 2.07954 106.896C1.32357 105.836 0.567605 104.773 0 103.711V0.129221C6.9946 -0.477606 14.3684 1.03845 19.6602 4.98181C24.5753 8.62277 27.6017 13.7778 33.2727 16.5095C37.4318 18.4792 42.5352 18.9348 47.2619 20.2996C58.2272 23.6362 65.2218 32.1297 69.7576 40.7745C74.4843 49.4192 77.6966 58.5176 84.6937 66.0999C88.2852 69.8921 93.3886 73.3798 99.248 73.0774C104.731 72.773 110.025 69.4364 114.94 71.1057C119.476 72.6218 120.423 77.4744 123.635 80.3573C127.606 84.1474 134.789 84.6031 140.65 82.9358C146.321 81.2665 146.889 79.2949 151.237 75.9583C163.146 74.4423 175.244 72.9262 187.345 73.9866C199.443 75.2003 211.352 79.4461 218.347 87.484C222.697 92.641 225.533 99.6165 232.715 101.893C235.739 102.802 239.142 102.802 242.166 104.015C251.24 107.352 252.755 119.182 262.394 120.849C266.365 121.456 270.524 120.091 274.495 120.698C278.654 121.305 281.678 123.579 284.136 126.158C285.46 127.522 286.404 129.343 287.916 130.403C290.94 132.679 293.399 134.802 298.126 134.347C306.444 133.286 312.871 127.825 320.433 125.4C330.831 122.063 342.549 129.19 353.326 126.764C358.43 125.551 362.589 122.365 367.883 121.607C368.639 121.456 369.395 121.456 370.151 121.456C371.475 121.305 372.798 121.305 374.31 121.607C377.334 122.063 379.793 123.123 382.249 124.488C383.384 124.944 384.329 125.4 385.276 126.006C390.947 128.887 396.806 131.466 402.289 134.347C403.801 134.347 405.315 134.347 406.827 134.498C414.389 135.56 416.845 141.324 421.193 145.57C421.761 146.177 422.516 146.63 423.272 147.086C424.028 147.693 424.975 147.995 425.92 148.148C427.999 148.755 430.267 149.058 432.537 149.058C436.885 149.058 440.288 146.479 444.447 146.935C449.362 147.39 453.142 150.727 457.869 151.181C461.649 151.485 465.243 149.816 468.643 148.3C476.961 144.356 485.28 140.413 493.598 136.47C506.643 130.252 518.173 134.347 531.597 137.683C547.287 141.475 563.546 143.447 579.992 143.294C584.53 143.294 589.254 142.991 593.604 141.627C602.111 138.746 607.214 131.768 612.508 125.702C617.8 119.636 625.742 113.569 635.004 114.632C643.511 115.541 650.129 122.063 658.635 121.456C665.818 121.001 671.489 115.541 678.675 115.846C681.887 115.997 684.722 117.21 687.937 117.362C691.34 117.513 694.555 116.45 697.39 115.239C718.563 107.048 736.711 94.0059 749.188 77.93C755.048 70.3477 759.774 62.1586 766.957 55.3323C774.143 48.508 784.729 43.1998 795.694 44.111C806.848 45.0203 816.49 51.8445 827.452 51.3909C831.044 51.2377 834.638 50.1773 838.229 49.8728C866.019 46.6895 890.595 76.2627 916.493 67.7692C919.708 66.7067 922.544 65.1907 925 63.3702V140.717Z" fill="white"/>
<mask id="mask0_2633_2392" style="mask-type:luminance" maskUnits="userSpaceOnUse" x="0" y="29" width="926" height="223">
<path d="M0 29.3519H926V251.107H0V29.3519Z" fill="white"/>
</mask>
<g mask="url(#mask0_2633_2392)">
<path d="M925.293 140.708L925.104 232.303C922.08 232.909 918.865 233.516 915.841 233.972C854.012 244.739 790.671 248.226 727.141 251.107H74.8268C59.6999 247.164 44.9524 242.767 30.3932 237.762C20.1847 234.274 9.97365 230.331 0.52124 225.63V30.9141C3.35722 30.3073 6.19319 30.005 9.21756 29.8517C34.9322 28.9426 54.5957 46.8377 70.667 62.9125C86.7384 78.9873 107.917 96.2736 133.44 93.6973C147.432 92.3326 159.534 84.8999 173.526 83.384C198.673 80.8056 220.037 97.7916 234.787 114.32C244.051 124.785 255.962 125.24 267.497 132.518C274.114 136.765 278.085 143.284 286.214 146.016C294.156 148.745 304.744 150.261 313.252 149.352C322.328 148.441 330.647 145.256 338.59 141.617C348.043 137.372 357.686 132.215 368.653 132.064C379.241 131.913 388.884 136.614 397.204 141.768C405.523 146.925 413.275 152.84 423.107 156.176C437.287 161.028 454.682 158.906 467.729 152.991C482.476 146.47 497.035 136.765 514.998 139.19C530.502 141.315 544.87 149.199 560.942 148.897C576.069 148.592 593.464 152.535 607.834 146.774C616.154 143.284 622.394 137.219 629.198 132.064C634.873 127.816 642.434 123.42 650.565 123.42C659.073 123.42 666.636 128.423 675.524 125.24C678.927 124.027 681.575 121.751 684.976 120.69C694.999 117.505 707.478 125.542 716.742 120.841C718.822 119.932 720.334 118.414 722.037 117.203C725.438 114.927 729.789 114.169 733.193 111.895C736.785 109.468 739.621 105.676 742.457 102.644C749.452 94.9089 755.504 86.5691 763.444 79.4409C785.755 59.7274 823.381 52.448 854.2 61.8501C866.491 65.642 877.646 71.7079 890.126 74.893C909.978 80.0477 916.597 74.893 925.861 67.6136L925.293 140.708Z" fill="#24A8E2"/>
</g>
<path d="M924.812 140.667L924.624 181.85C894.031 186.695 862.684 187.755 831.336 189.118C826.426 189.269 821.517 189.573 816.607 189.724C806.597 190.179 796.589 190.783 786.77 191.541C775.628 192.298 764.674 193.206 753.533 194.267C746.546 194.872 739.747 195.629 732.76 196.386C717.464 198.051 702.358 199.868 687.25 201.988C681.585 202.744 676.108 203.501 670.444 204.411C664.967 205.168 659.302 206.075 653.825 206.985C627.766 211.224 604.916 215.161 578.478 214.857C578.478 215.463 577.911 215.918 577.156 216.22C576.777 216.373 576.21 216.524 575.646 216.675C570.169 217.886 564.692 219.098 559.215 220.157C520.693 227.425 481.224 229.393 441.567 228.938C428.727 228.787 416.073 228.334 403.233 227.728C382.648 226.819 362.066 225.305 341.481 223.792C333.55 223.186 325.62 222.58 317.875 222.125C310.324 221.519 302.579 221.066 295.028 220.611C291.816 220.46 288.605 220.157 285.396 220.006C270.476 219.098 255.559 218.341 240.83 217.735C163.027 215.161 84.0918 220.46 8.17771 206.681C5.72158 206.228 3.26796 205.773 1 205.319V92.0635C2.70097 93.7301 4.5876 95.2437 6.66489 96.4554C14.2189 101.149 24.4172 102.965 33.6697 101.3C39.7135 100.088 45.5665 97.665 51.6102 97.9689C58.2184 98.4238 63.6952 102.208 68.4168 105.994C78.9914 114.624 88.0557 124.465 95.4216 135.217C96.9319 137.487 98.6304 139.91 101.465 141.273C103.919 142.332 106.94 142.483 109.584 142.181C125.635 140.212 134.511 126.282 148.674 119.771C163.782 112.807 184.743 115.683 195.884 126.433C198.717 129.158 200.985 132.339 204.761 134.307C211.748 138.093 217.98 133.248 224.4 137.032C228.933 139.607 231.198 144.3 235.92 146.571C238.941 148.086 242.716 147.48 246.306 147.329C253.294 147.176 258.203 149.145 263.868 151.568C269.912 154.294 277.275 154.445 283.131 157.321C286.151 158.836 288.796 161.258 292.383 161.863C295.592 162.469 299.182 161.562 302.391 162.469C307.68 163.983 309.19 169.435 313.533 172.463C317.311 175.037 323.164 175.188 327.13 172.767C330.53 170.645 332.04 167.314 334.306 164.438C341.104 155.656 362.633 153.386 372.828 158.987C376.228 160.805 378.872 163.226 381.516 165.649C386.614 170.192 392.47 174.733 400.021 175.643C402.289 175.945 404.743 175.794 407.008 176.249C414.374 177.46 420.418 183.364 427.972 182.758C436.469 182.154 441.191 174.129 449.121 171.706C455.541 169.737 463.095 171.706 469.327 169.131C472.915 167.769 475.371 165.044 478.392 163.075C483.301 160.199 489.721 159.289 495.765 158.836C500.487 158.381 505.208 158.08 509.927 157.927C511.628 157.776 513.327 157.776 514.837 157.625C518.992 157.474 523.146 157.17 527.301 157.927C531.834 158.683 535.798 160.652 540.143 162.014C554.117 166.861 570.545 167.012 584.898 162.62C591.318 160.652 596.419 157.321 602.083 154.595C608.315 151.568 614.547 149.296 620.021 145.361C622.289 143.694 624.555 142.03 627.199 140.818C630.032 139.607 633.052 138.85 636.263 138.546C643.062 137.789 650.049 138.395 656.469 140.212C661.379 141.575 666.101 143.694 671.199 143.543C678.753 143.393 684.985 138.699 690.649 134.611C695.747 130.976 700.848 128.251 707.835 127.645C715.01 127.039 721.997 126.888 728.796 124.314C741.069 119.771 748.811 110.082 758.066 102.208C767.319 94.183 780.917 87.3698 793.757 91.0028C797.723 92.0635 801.122 94.032 805.086 94.9398C814.718 96.9082 824.537 91.6087 834.547 91.7616C849.844 91.9126 860.606 104.176 874.959 108.264C890.444 112.656 907.438 106.901 922.735 102.057C923.49 101.755 924.245 101.602 925 101.3L924.812 140.667Z" fill="white"/>
<mask id="mask1_2633_2392" style="mask-type:luminance" maskUnits="userSpaceOnUse" x="0" y="100" width="926" height="152">
<path d="M0 100.054H925.357V251.107H0V100.054Z" fill="white"/>
</mask>
<g mask="url(#mask1_2633_2392)">
<path d="M925.292 140.708L925.104 250.956H0.329681V106.738C1.08577 106.587 1.65347 106.587 2.40956 106.436C27.9359 103.553 54.9743 109.924 69.9103 126.452C76.1499 133.278 79.9304 141.162 86.361 147.986C92.789 154.658 102.809 160.119 113.02 158.602C127.391 156.479 133.628 142.982 144.595 135.249C156.886 126.452 177.117 125.543 190.541 133.278C202.641 140.102 210.395 153.142 225.143 154.658C232.895 155.418 240.647 152.536 248.587 152.082C275.249 150.564 293.588 171.947 315.331 181.349C318.547 182.714 321.95 184.078 325.542 184.078C336.51 183.927 341.425 172.554 351.257 168.61C358.821 165.579 368.085 167.397 375.457 170.733C382.832 174.07 389.449 178.619 397.203 181.349C404.764 183.927 413.083 184.99 421.782 184.99C425.754 184.99 429.723 184.685 433.694 184.23C446.173 182.865 458.273 179.529 468.296 175.587C484.176 169.368 500.815 162.089 518.399 163.303C535.038 164.365 549.597 172.554 566.048 174.676C583.443 176.952 602.162 171.491 613.694 160.877C621.825 153.447 629.198 142.68 641.489 143.438C646.972 143.74 651.7 146.621 656.992 147.986C680.439 154.658 683.654 133.883 703.129 132.367C715.797 131.306 730.544 140.253 741.7 132.367C750.208 126.452 750.396 117.05 760.987 111.135C788.022 96.2739 829.432 97.1851 856.847 110.377C864.031 113.867 871.027 118.263 879.346 119.173C895.609 121.144 910.168 112.198 925.104 105.98L925.292 140.708Z" fill="#31D0F2"/>
</g>
<mask id="mask2_2633_2392" style="mask-type:luminance" maskUnits="userSpaceOnUse" x="0" y="133" width="926" height="119">
<path d="M0 133.082H925.357V251.107H0V133.082Z" fill="white"/>
</mask>
<g mask="url(#mask2_2633_2392)">
<path d="M925.292 140.709L925.104 224.872L915.84 233.819L898.254 250.956H9.02851C6.00163 249.591 3.16566 248.227 0.329681 246.862V133.125C5.24554 133.58 9.973 134.794 14.3212 136.917C18.6718 139.039 22.4523 141.769 26.9889 143.589C35.3084 146.926 45.1426 146.47 54.0273 149.048C54.4066 149.2 54.7834 149.2 54.9743 149.353C57.6194 150.262 60.0786 151.322 62.3469 152.536C81.0658 162.849 89.7646 185.597 112.076 190.751C117.557 191.965 123.04 192.116 128.524 191.207C132.684 190.6 136.655 189.538 140.815 188.173C151.591 184.534 162.179 178.924 172.957 174.981C182.221 171.493 191.676 169.217 201.508 170.28C208.315 171.038 214.932 173.463 221.928 173.767C228.547 174.07 234.975 172.403 241.591 172.858C252.181 173.616 260.878 179.378 269.765 184.383C275.058 187.415 280.732 189.993 286.969 191.056C294.156 192.267 301.528 191.056 308.524 192.723C318.547 194.999 325.163 202.276 332.915 208.04C340.478 213.803 346.718 219.262 355.794 215.168C366.382 220.323 379.429 212.285 391.719 212.134C396.256 212.134 400.795 213.196 405.143 213.65C424.051 215.319 440.878 205.31 456.193 196.364C461.488 193.33 466.972 190.144 472.832 187.566C483.988 182.714 496.088 179.682 508.002 182.26C511.782 183.018 515.186 184.383 518.967 185.292C520.67 185.748 522.37 186.05 524.262 186.201C527.854 186.506 531.446 186.05 535.229 186.05C536.362 186.05 537.497 186.05 538.63 186.201C540.71 186.355 542.79 186.657 544.87 187.113C553.001 188.933 560.376 192.874 565.292 198.335C566.992 200.153 568.316 202.125 570.396 203.49C576.256 207.737 585.332 206.977 593.275 207.282C602.727 207.584 611.994 210.011 621.446 210.011C649.429 210.314 662.476 184.685 686.299 178.468C688.57 177.862 690.838 177.406 693.295 177.255C693.486 177.255 693.486 177.255 693.674 177.255C697.834 176.952 701.805 177.406 705.965 176.952C708.61 176.648 711.069 176.194 713.717 175.434C723.925 172.554 733.569 167.095 743.968 168.762C749.452 169.673 754.747 172.403 760.04 173.312C762.687 173.767 765.144 173.767 767.791 173.009C767.98 173.009 768.171 172.858 768.359 172.705C774.599 170.28 779.326 163 785.566 165.274C787.834 166.032 789.158 168.004 791.049 169.369C791.615 169.824 792.371 170.28 793.129 170.582C798.422 173.009 805.606 171.645 810.901 168.611C811.657 168.157 812.225 167.701 812.981 167.246C818.841 162.849 822.436 156.783 827.917 152.082C843.232 138.433 869.138 137.979 892.014 138.584C894.662 138.584 897.121 138.737 899.768 138.737C908.276 139.191 916.784 139.646 925.292 140.709Z" fill="white"/>
</g>
<mask id="mask3_2633_2392" style="mask-type:luminance" maskUnits="userSpaceOnUse" x="0" y="141" width="926" height="111">
<path d="M0 141.339H925.357V251.107H0V141.339Z" fill="white"/>
</mask>
<g mask="url(#mask3_2633_2392)">
<path d="M925.104 145.561V251.107H0.329681V146.621C8.08151 146.016 15.645 146.621 23.02 148.897C44.5749 155.57 60.267 170.28 77.0944 183.018C93.9244 195.757 114.912 207.584 137.979 205.765C167.474 203.641 190.92 179.682 220.604 181.5C234.975 182.411 247.454 189.386 260.498 194.239C274.301 199.395 287.728 199.546 301.908 202.58C314.764 205.31 321.95 213.347 332.727 219.564C335.374 221.233 338.399 222.598 341.235 223.81C357.306 230.482 376.593 231.847 394.555 229.271C397.391 228.815 400.227 228.36 403.063 227.753C421.026 223.963 437.854 216.684 453.357 208.495C469.996 199.7 487.58 189.235 507.434 190.297C525.774 191.358 540.71 202.276 556.784 209.404C563.212 212.285 570.208 214.561 577.392 216.228C607.834 223.507 642.433 219.716 668.716 205.461C669.283 205.159 670.039 204.854 670.607 204.401C690.271 193.178 707.854 176.799 731.868 175.587C757.583 174.374 783.107 191.965 807.121 184.232C817.897 180.742 824.704 173.16 831.888 165.579C835.671 161.787 839.452 157.995 843.8 154.812C857.792 144.803 879.914 143.438 897.877 141.769C905.25 141.162 911.68 141.92 917.92 143.438C920.565 144.196 922.836 144.803 925.104 145.561Z" fill="#FFE4CA"/>
</g>
<path d="M925 145.033V167.503C922.541 168.114 920.085 168.267 917.627 168.267C911.956 168.114 906.474 166.279 900.803 165.211C885.87 162.152 869.423 164.599 856.758 171.63C848.064 176.52 840.123 183.553 831.617 189.208C823.111 194.865 814.037 198.992 803.452 197.309C797.779 196.393 792.299 193.946 787.005 191.654C779.067 188.139 771.505 184.929 763.755 187.985C759.973 189.515 757.137 192.266 753.734 194.406C752.602 195.17 751.467 195.781 750.331 196.241C744.849 198.533 738.99 197.769 732.94 196.393C728.593 195.474 724.246 194.253 720.087 193.642C708.366 191.959 696.078 195.322 687.572 201.895C684.36 204.342 681.901 207.093 680.01 210.302C678.122 213.512 676.798 217.182 673.584 219.626C670.372 222.073 665.834 222.989 661.487 223.753C640.313 227.423 618.198 231.091 597.592 226.2C588.707 224.06 580.389 220.545 571.316 219.933C567.536 219.626 563.565 219.933 559.786 220.238C551.847 221.154 543.906 222.989 535.968 223.296C524.059 223.601 516.497 221.461 517.253 211.832C506.856 204.799 491.924 202.659 479.256 206.482C464.7 210.913 454.871 221.766 442.017 228.951C439.559 230.327 436.914 231.55 434.079 232.619C413.285 240.263 388.899 233.23 366.214 235.524C352.414 237.052 335.781 241.332 326.328 233.078C322.926 230.174 321.225 226.047 318.578 222.532C318.39 222.378 318.39 222.225 318.199 222.073C315.552 218.71 311.205 215.806 306.479 216.263C302.887 216.723 299.864 219.015 296.461 220.086C296.084 220.238 295.705 220.238 295.326 220.39C291.925 221.156 288.711 220.85 285.687 219.779C278.881 217.334 273.21 211.22 269.807 205.563C268.484 203.271 267.161 200.825 264.893 199.144C261.49 196.545 256.387 196.241 251.66 195.934C230.11 194.558 207.804 193.489 187.766 200.061C175.289 204.188 163.948 211.372 150.527 212.289C138.051 213.055 125.386 208.316 113.286 210.608C107.427 211.679 101.945 214.276 95.8948 213.819C88.9006 213.207 83.6092 208.469 80.583 203.423C77.5593 198.38 75.8591 192.723 72.4561 187.832C66.9738 179.883 57.1443 174.535 47.6915 169.49C33.1356 161.695 17.6353 153.746 1 150.536V146.102C8.7501 145.493 16.3119 146.102 23.6852 148.396C45.2354 155.122 60.9239 169.949 77.7476 182.789C94.5713 195.629 115.554 207.55 138.618 205.718C168.107 203.576 191.548 179.426 221.225 181.259C235.593 182.177 248.069 189.208 261.111 194.099C274.911 199.297 288.331 199.449 302.511 202.507C315.364 205.258 322.549 213.36 333.323 219.626C335.97 221.309 338.993 222.684 341.829 223.906C357.896 230.631 377.179 232.007 395.138 229.41C397.973 228.951 400.808 228.492 403.644 227.88C421.603 224.06 438.426 216.723 453.926 208.469C470.562 199.603 488.141 189.056 507.991 190.126C526.327 191.195 541.259 202.2 557.327 209.385C563.756 212.289 570.751 214.583 577.933 216.263C608.368 223.601 642.96 219.779 669.237 205.411C669.804 205.106 670.56 204.799 671.128 204.342C690.787 193.03 708.366 176.52 732.375 175.299C758.082 174.076 783.602 191.807 807.611 184.012C818.385 180.495 825.19 172.853 832.373 165.211C836.153 161.388 839.935 157.566 844.282 154.358C858.27 144.269 880.388 142.894 898.347 141.211C905.718 140.6 912.144 141.364 918.383 142.894C920.462 143.658 922.732 144.269 925 145.033Z" fill="#FFD3B3"/>
</svg>
